<mxfile host="Electron" modified="2023-12-31T09:34:01.129Z" agent="Mozilla/5.0 (Windows NT 10.0; Win64; x64) AppleWebKit/537.36 (KHTML, like Gecko) draw.io/21.3.7 Chrome/112.0.5615.204 Electron/24.5.0 Safari/537.36" etag="KEe0SAqgcdxN_LVHFKxh" version="21.3.7" type="device">
  <diagram name="Page-1" id="7VvEZ_dhb3s2hR5QKW55">
    <mxGraphModel dx="1036" dy="606" grid="1" gridSize="10" guides="1" tooltips="1" connect="1" arrows="1" fold="1" page="1" pageScale="1" pageWidth="1169" pageHeight="1654" math="0" shadow="0">
      <root>
        <mxCell id="0" />
        <mxCell id="1" parent="0" />
        <mxCell id="_rtZ5HR-OS9jJ_imn8px-1" value="&lt;font style=&quot;font-size: 16px;&quot;&gt;Boutiquier&lt;/font&gt;" style="shape=umlActor;verticalLabelPosition=bottom;verticalAlign=top;html=1;outlineConnect=0;" vertex="1" parent="1">
          <mxGeometry x="90" y="250" width="30" height="60" as="geometry" />
        </mxCell>
        <mxCell id="_rtZ5HR-OS9jJ_imn8px-3" value="&lt;i&gt;Sytème de getsion de boutique&amp;nbsp;&lt;/i&gt;" style="shape=rect;html=1;verticalAlign=top;fontStyle=1;whiteSpace=wrap;align=center;" vertex="1" parent="1">
          <mxGeometry x="240" y="90" width="600" height="670" as="geometry" />
        </mxCell>
        <mxCell id="_rtZ5HR-OS9jJ_imn8px-4" value="Création&amp;nbsp; de Catégories" style="shape=ellipse;html=1;strokeWidth=1;fontStyle=1;whiteSpace=wrap;align=center;perimeter=ellipsePerimeter;" vertex="1" parent="1">
          <mxGeometry x="320" y="130" width="200" height="60" as="geometry" />
        </mxCell>
        <mxCell id="_rtZ5HR-OS9jJ_imn8px-5" value="Création d&#39;un article" style="shape=ellipse;html=1;strokeWidth=1;fontStyle=1;whiteSpace=wrap;align=center;perimeter=ellipsePerimeter;" vertex="1" parent="1">
          <mxGeometry x="395" y="260" width="190" height="60" as="geometry" />
        </mxCell>
        <mxCell id="_rtZ5HR-OS9jJ_imn8px-6" value="Rechercher un article&amp;nbsp;" style="shape=ellipse;html=1;strokeWidth=1;fontStyle=1;whiteSpace=wrap;align=center;perimeter=ellipsePerimeter;" vertex="1" parent="1">
          <mxGeometry x="450" y="360" width="195" height="60" as="geometry" />
        </mxCell>
        <mxCell id="_rtZ5HR-OS9jJ_imn8px-7" value="Vendre article" style="shape=ellipse;html=1;strokeWidth=1;fontStyle=1;whiteSpace=wrap;align=center;perimeter=ellipsePerimeter;" vertex="1" parent="1">
          <mxGeometry x="310" y="470" width="170" height="60" as="geometry" />
        </mxCell>
        <mxCell id="_rtZ5HR-OS9jJ_imn8px-8" value="&amp;lt;&amp;lt;extend&amp;gt;&amp;gt;" style="edgeStyle=none;html=1;startArrow=open;endArrow=none;startSize=12;verticalAlign=bottom;dashed=1;labelBackgroundColor=none;rounded=0;exitX=0.045;exitY=0.27;exitDx=0;exitDy=0;exitPerimeter=0;" edge="1" parent="1" source="_rtZ5HR-OS9jJ_imn8px-9" target="_rtZ5HR-OS9jJ_imn8px-7">
          <mxGeometry width="160" relative="1" as="geometry">
            <mxPoint x="550" y="550" as="sourcePoint" />
            <mxPoint x="480" y="490" as="targetPoint" />
          </mxGeometry>
        </mxCell>
        <mxCell id="_rtZ5HR-OS9jJ_imn8px-9" value="imprimer reçu" style="shape=ellipse;html=1;strokeWidth=1;fontStyle=1;whiteSpace=wrap;align=center;perimeter=ellipsePerimeter;" vertex="1" parent="1">
          <mxGeometry x="585" y="510" width="135" height="60" as="geometry" />
        </mxCell>
        <mxCell id="_rtZ5HR-OS9jJ_imn8px-11" value="&lt;span style=&quot;white-space: pre;&quot;&gt;&#x9;&lt;/span&gt;Regarder les statistiques de la boutique&amp;nbsp;" style="shape=ellipse;html=1;strokeWidth=1;fontStyle=1;whiteSpace=wrap;align=center;perimeter=ellipsePerimeter;" vertex="1" parent="1">
          <mxGeometry x="500" y="190" width="220" height="60" as="geometry" />
        </mxCell>
        <mxCell id="_rtZ5HR-OS9jJ_imn8px-12" value="" style="endArrow=classic;html=1;rounded=0;entryX=0.056;entryY=0.71;entryDx=0;entryDy=0;entryPerimeter=0;" edge="1" parent="1" target="_rtZ5HR-OS9jJ_imn8px-4">
          <mxGeometry width="50" height="50" relative="1" as="geometry">
            <mxPoint x="150" y="270" as="sourcePoint" />
            <mxPoint x="210" y="230" as="targetPoint" />
          </mxGeometry>
        </mxCell>
        <mxCell id="_rtZ5HR-OS9jJ_imn8px-13" value="" style="endArrow=classic;html=1;rounded=0;entryX=0;entryY=0.5;entryDx=0;entryDy=0;" edge="1" parent="1" target="_rtZ5HR-OS9jJ_imn8px-5">
          <mxGeometry width="50" height="50" relative="1" as="geometry">
            <mxPoint x="150" y="300" as="sourcePoint" />
            <mxPoint x="210" y="280" as="targetPoint" />
          </mxGeometry>
        </mxCell>
        <mxCell id="_rtZ5HR-OS9jJ_imn8px-14" value="" style="endArrow=classic;html=1;rounded=0;" edge="1" parent="1" target="_rtZ5HR-OS9jJ_imn8px-6">
          <mxGeometry width="50" height="50" relative="1" as="geometry">
            <mxPoint x="150" y="340" as="sourcePoint" />
            <mxPoint x="230" y="330" as="targetPoint" />
          </mxGeometry>
        </mxCell>
        <mxCell id="_rtZ5HR-OS9jJ_imn8px-15" value="" style="endArrow=classic;html=1;rounded=0;entryX=0.106;entryY=0.257;entryDx=0;entryDy=0;entryPerimeter=0;" edge="1" parent="1" target="_rtZ5HR-OS9jJ_imn8px-7">
          <mxGeometry width="50" height="50" relative="1" as="geometry">
            <mxPoint x="160" y="370" as="sourcePoint" />
            <mxPoint x="280" y="390" as="targetPoint" />
          </mxGeometry>
        </mxCell>
        <mxCell id="_rtZ5HR-OS9jJ_imn8px-20" value="Vérifier disponibliter de l&#39;article" style="shape=ellipse;html=1;strokeWidth=1;fontStyle=1;whiteSpace=wrap;align=center;perimeter=ellipsePerimeter;" vertex="1" parent="1">
          <mxGeometry x="330" y="620" width="220" height="60" as="geometry" />
        </mxCell>
        <mxCell id="_rtZ5HR-OS9jJ_imn8px-21" value="" style="endArrow=classic;html=1;rounded=0;entryX=0;entryY=0.5;entryDx=0;entryDy=0;" edge="1" parent="1" target="_rtZ5HR-OS9jJ_imn8px-11">
          <mxGeometry width="50" height="50" relative="1" as="geometry">
            <mxPoint x="180" y="280" as="sourcePoint" />
            <mxPoint x="300" y="230" as="targetPoint" />
          </mxGeometry>
        </mxCell>
        <mxCell id="_rtZ5HR-OS9jJ_imn8px-23" value="&amp;lt;&amp;lt;include&amp;gt;&amp;gt;" style="edgeStyle=none;html=1;endArrow=open;verticalAlign=bottom;dashed=1;labelBackgroundColor=none;rounded=0;entryX=0.636;entryY=0;entryDx=0;entryDy=0;entryPerimeter=0;" edge="1" parent="1" target="_rtZ5HR-OS9jJ_imn8px-20">
          <mxGeometry width="160" relative="1" as="geometry">
            <mxPoint x="380" y="530" as="sourcePoint" />
            <mxPoint x="500" y="600" as="targetPoint" />
          </mxGeometry>
        </mxCell>
      </root>
    </mxGraphModel>
  </diagram>
</mxfile>
